<?xml version="1.0" encoding="iso-8859-1"?>
<!-- Generator: Adobe Illustrator 26.3.1, SVG Export Plug-In . SVG Version: 6.00 Build 0)  -->
<svg version="1.1" xmlns="http://www.w3.org/2000/svg" xmlns:xlink="http://www.w3.org/1999/xlink" x="0px" y="0px"
	 viewBox="0 0 144.054 60" style="enable-background:new 0 0 144.054 60;" xml:space="preserve">
<g id="Centres">
	<g id="CCLA">
		<g>
			<g>
				<path style="fill:#102B72;" d="M19.229,48.811v-2.074h2.217v2.074H19.229z M21.447,59.822h-2.217v-9.296h2.217V59.822z"/>
				<path style="fill:#102B72;" d="M23.479,59.822v-9.296h2.038v1.001c0.822-0.571,1.77-1.179,2.86-1.179
					c1.859,0,2.753,1.215,2.753,3.11v6.363h-2.217V53.78c0-1.251-0.393-1.645-1.144-1.645c-0.965,0-1.698,0.554-2.074,0.983v6.704
					H23.479z"/>
				<path style="fill:#102B72;" d="M41.67,46.897h3.075l3.664,12.925H45.96l-0.715-2.789h-4.075l-0.768,2.789h-2.449L41.67,46.897z
					 M41.705,54.995h3.003l-1.448-5.613h-0.035L41.705,54.995z"/>
				<path style="fill:#102B72;" d="M54.251,52.975c-0.447-0.483-1.036-0.984-1.733-0.984c-0.858,0-1.251,0.358-1.251,0.912
					c0,1.592,4.647,0.912,4.647,4.309c0,1.93-1.466,2.788-3.413,2.788c-1.484,0-2.699-0.661-3.522-1.877l1.483-1.108
					c0.518,0.715,1.216,1.341,2.163,1.341c0.786,0,1.323-0.429,1.323-1.055c0-1.592-4.648-1.019-4.648-4.254
					c0-1.734,1.466-2.699,3.074-2.699c1.234,0,2.467,0.464,3.272,1.412L54.251,52.975z"/>
				<path style="fill:#102B72;" d="M57.425,48.811v-2.074h2.217v2.074H57.425z M59.642,59.822h-2.217v-9.296h2.217V59.822z"/>
				<path style="fill:#102B72;" d="M66.532,59.822l-0.144-0.805C65.495,59.625,64.654,60,63.492,60c-1.68,0-2.52-1.197-2.52-2.466
					c0-2.11,1.717-3.218,5.327-3.647V53.1c0-0.715-0.571-1.109-1.358-1.109c-1.037,0-1.608,0.555-2.037,1.144l-1.43-1.09
					c0.571-0.983,2.109-1.734,3.468-1.698c2.503,0.053,3.576,0.965,3.576,3.754v4.379c0,0.464,0.035,0.93,0.178,1.341H66.532z
					 M66.298,55.371c-1.483,0.286-3.11,0.59-3.11,1.895c0,0.697,0.448,1.091,1.073,1.091c0.696,0,1.573-0.59,2.037-0.984V55.371z"/>
			</g>
			<g>
				<path style="fill:#102B72;" d="M25.844,31.606c-0.358-1.09-1.126-1.859-2.342-1.859c-1.645,0-2.645,1.539-2.645,4.559
					c-0.035,3.021,0.858,4.557,2.717,4.557c1.109,0,1.787-0.393,2.52-1.912l2.288,0.607c-0.768,2.235-2.448,3.379-4.808,3.379
					c-3.289,0-5.184-2.413-5.184-6.631c0-4.219,1.895-6.633,5.184-6.633c2.467,0,3.896,1.11,4.504,3.398L25.844,31.606z"/>
				<path style="fill:#102B72;" d="M33.262,31.286c2.52,0,4.04,1.876,4.04,4.826c0,2.949-1.52,4.826-4.04,4.826
					s-4.04-1.877-4.04-4.826C29.222,33.161,30.742,31.286,33.262,31.286z M33.262,33.072c-1.234,0-1.824,0.966-1.824,3.04
					c0,2.074,0.59,3.039,1.824,3.039c1.234,0,1.824-0.965,1.824-3.039C35.086,34.038,34.495,33.072,33.262,33.072z"/>
				<path style="fill:#102B72;" d="M38.683,40.759v-9.295h2.02v1c0.841-0.768,1.52-1.178,2.789-1.178
					c0.966,0,1.877,0.464,2.288,1.357c0.769-0.768,1.662-1.357,3.2-1.357c0.965,0,2.288,0.571,2.288,2.788v6.685h-2.216V34.27
					c0-0.751-0.304-1.162-1.109-1.198c-0.571,0-1.341,0.518-1.859,1.001v6.685h-2.216V34.27c0-0.751-0.304-1.162-1.109-1.198
					c-0.571,0-1.341,0.518-1.859,1.001v6.685H38.683z"/>
				<path style="fill:#102B72;" d="M53.229,40.759v-9.295h2.02v1c0.84-0.768,1.52-1.178,2.789-1.178
					c0.966,0,1.877,0.464,2.288,1.357c0.769-0.768,1.662-1.357,3.2-1.357c0.965,0,2.288,0.571,2.288,2.788v6.685h-2.216V34.27
					c0-0.751-0.304-1.162-1.109-1.198c-0.571,0-1.341,0.518-1.859,1.001v6.685h-2.216V34.27c0-0.751-0.304-1.162-1.109-1.198
					c-0.571,0-1.341,0.518-1.859,1.001v6.685H53.229z"/>
				<path style="fill:#102B72;" d="M69.437,36.47c0.036,1.93,0.894,2.681,1.931,2.681s1.52-0.465,2.074-1.109l1.608,1.001
					c-0.858,1.322-2.109,1.895-3.896,1.895c-2.413,0-3.933-1.877-3.933-4.826c0-2.95,1.52-4.826,4.04-4.826
					c2.431-0.019,3.789,2.037,3.789,4.272v0.912H69.437z M73.013,34.968c-0.036-1.288-0.715-2.038-1.787-2.038
					c-1.073,0-1.752,0.751-1.788,2.038H73.013z"/>
				<path style="fill:#102B72;" d="M76.484,40.759v-9.295h2.037v1.592h0.036c0.536-1.109,1.287-1.734,2.61-1.77v2.341
					c-0.107-0.018-0.233-0.018-0.393-0.018c-1.109,0-2.074,1.269-2.074,1.501v5.648H76.484z"/>
				<path style="fill:#102B72;" d="M87.595,34.485c-0.357-0.786-0.751-1.413-1.823-1.413c-1.234,0-1.824,0.966-1.824,3.04
					c0,2.074,0.59,3.039,1.896,3.039c0.965,0,1.519-0.661,1.966-1.483l1.68,0.947c-0.894,1.662-2.021,2.342-3.718,2.323
					c-2.52,0-4.04-1.877-4.04-4.826c0-2.95,1.52-4.826,4.04-4.826c1.752,0,3.146,0.929,3.664,2.484L87.595,34.485z"/>
				<path style="fill:#102B72;" d="M90.979,29.747v-2.074h2.217v2.074H90.979z M93.196,40.759h-2.217v-9.295h2.217V40.759z"/>
				<path style="fill:#102B72;" d="M100.085,40.759l-0.144-0.804c-0.893,0.608-1.733,0.983-2.896,0.983
					c-1.68,0-2.52-1.197-2.52-2.467c0-2.109,1.717-3.217,5.327-3.646v-0.787c0-0.715-0.572-1.109-1.358-1.109
					c-1.037,0-1.608,0.555-2.037,1.144l-1.43-1.091c0.572-0.983,2.109-1.733,3.467-1.697c2.503,0.053,3.576,0.964,3.576,3.754v4.378
					c0,0.465,0.035,0.931,0.178,1.341H100.085z M99.852,36.307c-1.483,0.287-3.11,0.591-3.11,1.896c0,0.696,0.448,1.09,1.073,1.09
					c0.696,0,1.573-0.589,2.037-0.983V36.307z"/>
				<path style="fill:#102B72;" d="M104.06,40.759V27.852h2.217v12.906H104.06z"/>
				<path style="fill:#102B72;" d="M114.495,40.759V27.852h2.467v10.832h5.613v2.074H114.495z"/>
				<path style="fill:#102B72;" d="M128.983,40.759l-0.144-0.804c-0.893,0.608-1.733,0.983-2.896,0.983
					c-1.68,0-2.52-1.197-2.52-2.467c0-2.109,1.717-3.217,5.327-3.646v-0.787c0-0.715-0.572-1.109-1.358-1.109
					c-1.037,0-1.608,0.555-2.037,1.144l-1.43-1.091c0.571-0.983,2.109-1.733,3.467-1.697c2.503,0.053,3.576,0.964,3.576,3.754v4.378
					c0,0.465,0.035,0.931,0.178,1.341H128.983z M128.75,36.307c-1.483,0.287-3.11,0.591-3.11,1.896c0,0.696,0.448,1.09,1.073,1.09
					c0.696,0,1.573-0.589,2.037-0.983V36.307z"/>
				<path style="fill:#102B72;" d="M131.776,31.464h2.109l1.269,5.792h0.036l1.34-5.792h2.056l1.288,5.792h0.035l1.323-5.792h2.109
					l-2.395,9.295h-2.002l-1.377-5.791h-0.035l-1.358,5.791h-2.002L131.776,31.464z"/>
			</g>
			<g>
				<path style="fill:#102B72;" d="M23.115,14.093c-0.258-0.789-0.814-1.345-1.694-1.345c-1.19,0-1.913,1.112-1.913,3.297
					c-0.026,2.186,0.62,3.298,1.965,3.298c0.802,0,1.293-0.284,1.823-1.383l1.655,0.439c-0.556,1.617-1.772,2.444-3.478,2.444
					c-2.38,0-3.751-1.746-3.751-4.798c0-3.051,1.371-4.797,3.751-4.797c1.784,0,2.819,0.802,3.258,2.457L23.115,14.093z"/>
				<path style="fill:#102B72;" d="M27.183,17.61c0.026,1.396,0.646,1.939,1.396,1.939c0.751,0,1.099-0.336,1.5-0.802l1.164,0.723
					c-0.62,0.957-1.526,1.371-2.819,1.371c-1.746,0-2.845-1.357-2.845-3.491s1.099-3.491,2.923-3.491
					c1.758-0.012,2.741,1.474,2.741,3.091v0.66H27.183z M29.768,16.524c-0.026-0.931-0.517-1.474-1.293-1.474
					c-0.776,0-1.267,0.543-1.293,1.474H29.768z"/>
				<path style="fill:#102B72;" d="M32.351,20.713v-6.725h1.474v0.725c0.595-0.413,1.28-0.854,2.069-0.854
					c1.345,0,1.991,0.88,1.991,2.251v4.603h-1.604v-4.371c0-0.905-0.284-1.19-0.828-1.19c-0.697,0-1.228,0.401-1.499,0.712v4.849
					H32.351z"/>
				<path style="fill:#102B72;" d="M39.589,13.989v-2.224h1.603v2.224h1.32v1.294h-1.32v3.802c0,0.361,0.181,0.465,0.582,0.465
					c0.246,0,0.505-0.078,0.738-0.129v1.319c-0.44,0.051-0.828,0.103-1.268,0.103c-1.19,0-1.655-0.594-1.655-1.552v-4.008h-0.931
					v-1.294H39.589z"/>
				<path style="fill:#102B72;" d="M43.401,20.713v-6.725h1.474v1.151h0.026c0.387-0.802,0.931-1.254,1.887-1.28v1.694
					c-0.077-0.012-0.168-0.012-0.284-0.012c-0.802,0-1.5,0.918-1.5,1.086v4.087H43.401z"/>
				<path style="fill:#102B72;" d="M48.818,17.61c0.026,1.396,0.646,1.939,1.397,1.939c0.75,0,1.099-0.336,1.5-0.802l1.164,0.723
					c-0.621,0.957-1.526,1.371-2.819,1.371c-1.746,0-2.845-1.357-2.845-3.491s1.099-3.491,2.922-3.491
					c1.759-0.012,2.742,1.474,2.742,3.091v0.66H48.818z M51.405,16.524c-0.026-0.931-0.517-1.474-1.294-1.474
					c-0.776,0-1.267,0.543-1.293,1.474H51.405z"/>
				<path style="fill:#102B72;" d="M60.005,15.283v5.431h-1.603v-5.431H57.47v-1.294h0.918v-0.828c0-1.448,0.582-1.913,1.901-1.913
					h1.061v1.293H60.91c-0.672,0-0.906,0.207-0.906,0.725v0.723h1.357v1.294H60.005z"/>
				<path style="fill:#102B72;" d="M64.684,13.86c1.824,0,2.923,1.357,2.923,3.491s-1.099,3.491-2.923,3.491
					c-1.823,0-2.922-1.357-2.922-3.491S62.861,13.86,64.684,13.86z M64.684,15.153c-0.892,0-1.319,0.698-1.319,2.199
					c0,1.5,0.427,2.199,1.319,2.199c0.892,0,1.319-0.698,1.319-2.199C66.003,15.851,65.576,15.153,64.684,15.153z"/>
				<path style="fill:#102B72;" d="M68.573,20.713v-6.725h1.474v1.151h0.026c0.388-0.802,0.932-1.254,1.888-1.28v1.694
					c-0.078-0.012-0.169-0.012-0.284-0.012c-0.803,0-1.5,0.918-1.5,1.086v4.087H68.573z"/>
			</g>
		</g>
	</g>
</g>
<g id="Blue_Separator__x28_Excl_for_Schools_x29_">
	<rect id="Separator_15_" y="11.248" style="fill:#102B72;" width="1" height="48.752"/>
</g>
</svg>
